<svg xmlns="http://www.w3.org/2000/svg" viewBox="0 0 1744 1744" fill="none" shape-rendering="auto" width="128" height="128"><metadata xmlns:rdf="http://www.w3.org/1999/02/22-rdf-syntax-ns#" xmlns:xsi="http://www.w3.org/2001/XMLSchema-instance" xmlns:dc="http://purl.org/dc/elements/1.1/" xmlns:dcterms="http://purl.org/dc/terms/"><rdf:RDF><rdf:Description><dc:title>Notionists</dc:title><dc:creator>Zoish</dc:creator><dc:source xsi:type="dcterms:URI">https://heyzoish.gumroad.com/l/notionists</dc:source><dcterms:license xsi:type="dcterms:URI">https://creativecommons.org/publicdomain/zero/1.0/</dcterms:license><dc:rights>Remix of „Notionists” (https://heyzoish.gumroad.com/l/notionists) by „Zoish”, licensed under „CC0 1.0” (https://creativecommons.org/publicdomain/zero/1.0/)</dc:rights></rdf:Description></rdf:RDF></metadata><mask id="viewboxMask"><rect width="1744" height="1744" rx="0" ry="0" x="0" y="0" fill="#fff" /></mask><g mask="url(#viewboxMask)"><g transform="translate(531 487)"><path d="M554 727.7c-99.2 297-363.8 388.6-503.7 19.8-19.3-50.7 31-69.5 66.2-91.9 24.1-15.3 36.8-28.5 35.3-42.2-7-64.4-36.9-243.8-36.9-243.8l-3-5.8s.7-1.6-2.2 1.2c-3 3-9.9 34.2-37 34.2-24.5 0-49.2-10.9-61-86.3C7.2 285.6 9.6 214 40 201c12.5-5.3 24-7.2 35.2-.8 11.3 6.4-13-22 112-126C268.4 6.4 396.7-3.5 448.5 8 500.3 19.5 552 44.8 574.9 98.5c27.8 65-25.9 114.3-14 262.5-2.2 53.6.8 171.2-146.6 210.6-28 7.5-19.3 48.4 22.7 58.4 67 21 117 72.3 117 97.9" fill="#fff"/><path fill-rule="evenodd" clip-rule="evenodd" d="m554 266.2.1-1.4c4.1-36.4 8.2-71.7 27.1-103.4 6.5 4.4 5.7 10 3.7 15.2-19.9 51.2-18 104.4-16.2 157.6l.4 14c2.1 66.4-14.5 126.8-58.7 177.5-15.4 17.6-35.8 29.8-56.5 40.3-21.4 11-25.9 20.1-19.2 43.6l.8 2.6c1.4 3.9 2.8 7.9-1 11.8-4.5 4.6-9.5 3.3-14.8 1.8l-.6-.1a406.4 406.4 0 0 1-137-68.3c-6-4.4-10.8-10.3-15.5-16.1l-.3-.4c-2.5-3-3-7.8.5-10.4 3.3-2.5 5.8-.5 8.7 1.8l1 .9a145.5 145.5 0 0 0 76.3 31.7c13.4 1.4 26.6.9 40 .4 7.4-.3 14.8-.6 22.3-.5 10.2 0 18.7-4.7 26.7-9.2l2.8-1.6c27.8-15.5 54.3-32.8 72.2-60.7 16.1-25 25.9-52.2 31.6-80.9 7.2-36.1 6.6-72.7 6-109.8-.3-12-.5-24.2-.5-36.4ZM50.6 190.8c21.9-1.7 34 11.2 44.3 26.3a140.4 140.4 0 0 1 22.4 61.5c.5 3.7 1 7.6-1.2 11.3-4.5.6-4.9-3-5-5.6-.5-20.7-9.7-38.7-18.9-56.1-6.6-12.5-16.2-24.6-31.4-27.6-17.2-3.5-33 12-40.8 32.2-14.5 37.6-12 74.6 1.4 111 5.8 15.9 13.1 32.1 27.8 43.2 14.8 11.3 32.7 9.3 43.6-5.7l2-2.5c2-2.6 4-5.1 5-8 2.1-5.8 5.4-11.2 11.3-10.4 6.8 1 8 8.3 8.7 14a3661 3661 0 0 0 22 156.7l5.9 38.8c2.6 17.1 5.6 41.7 3.6 52.1a28 28 0 0 0-.3 2.2c-.4 2.8-.6 5-4.2 5.5-4.9.8-7-2-7.7-6.4-2.3-17-3-23.6-4-49.6-.9-25.2-5.6-50-10.4-74.9l-5-27c-5.2-30.8-10.3-62-10.8-97l-2 3c-7.6 11.3-13.7 20.5-24.5 24a40.5 40.5 0 0 1-46.1-12.5 127.8 127.8 0 0 1-28.8-55.8c-8.4-34-9.9-67.1.9-100.6 5.2-16.1 23.7-44.7 42.2-42Zm34.6 127.5c4.4 3.2 8.4 6 12-5.4-1.1-42.2-14.7-69.2-35.8-70.3 11.2 14.6 22 28.8 23 48.5a32.3 32.3 0 0 1-10.7-8.8c-2-2.2-4-4.4-6.5-6l-3-2.4c-4.8-3.6-9.7-7.4-17.8-4.5 3.8 5.8 9 10 14.3 14 6 4.7 12 9.3 15.6 16.5-10.6 7.7-15.2 17.7-9.7 29.9 4.8 10.5 11.9 19.2 25.9 19.8-.6-6.3-4.7-10.9-8.8-15.4-5-5.4-9.7-10.6-7.5-18.6 3.2-1.5 6.2.7 9 2.7Z" fill="#000"/></g><g transform="translate(178 1057)"><path d="M1294.6 717H83.4l8.6-63.2S14.3 627.3 6.5 612c-7.8-15.3 84.3-214 97-245.4 12.6-31.5 76.6-148 135.7-174 39.7-17.3 137.8-75.2 175-91.5C419 99 431 81 438.6 68c7.6-13.2 15.7 13.4 42-28.5 6.7-10.6 34.7 7 50.7 17.3 13.6 9 36.7 44.5 142.6 37.8C817.5 85.7 837 19.3 853.6 29c24 14 53.8 56.5 53.8 56.5s109.8 69 138.7 91.6c59.5 46.4 123.1 81.9 180.6 251.6 19.9 58.6 78 160.2 86 173.2 8.2 13.1-27 36-27 36l8.9 79.1Z" fill="#fff"/><path d="M1063.5 198.7c-30.2-25.3-60-47-93.8-66.2-2.3-1.3-4.7-3.4-7.4-1.2-3.7 3.2-2.5 7.6-1.5 11.7 6.1 24.7.6 46.4-15.4 63.8a85.1 85.1 0 0 1-36 22.7c-9.3 3-12.6 8-9.8 19.7 5.4 21.8 11.7 43.1 11.2 66.9-.7 29-12.8 49.6-29.5 68.8-23 26.6-53.7 35.9-83.7 46.8a383.3 383.3 0 0 0-90.2 45.3c-15.2 10.7-23 30-30.6 48a292.5 292.5 0 0 0-18.6 77.1c-2.5 18.7 6 34.8 9.7 52 5 23.3 14.4 44.4 30.3 62-3.9.9-7.7.9-12.6.9a182.8 182.8 0 0 1-36-137.3c5.3-39.8 18.7-76.8 45.6-105.2 16-17 36.4-26.8 56.3-37 28.7-14.6 60-22.2 88.5-37 29-15.2 51.2-39.3 55.6-79a164 164 0 0 0-6.6-61c-5-19-.5-31.3 16.5-42 9.4-6 19.7-9.4 28.3-18a53 53 0 0 0 17.3-32.9c2.8-27.8-2-51.7-22.2-66.3-11.7-8.4-16-8-25.6 3.3-3.8 4.4-7.2 9-13.4 5.7-1.7-2.1-.3-4 .5-5.8 2.8-5.6 10.7-8.8 8.2-17-3.2-10.7-6.4-22-15.4-28.9-6.4-4.8-13-6.4-20-1.7-3.3 2.2-6.5 4.5-10 6-1.4.6-3 .6-4.5 0-1.4-.7-2.5-2-3.1-3.6-1.6-3.6.6-5.3 2.8-7.2 3.6-3 7-6.2 11-10-6.4-8-12.1-5.6-18-.9-10.3 8.4-20 18.1-31 24.8a211.2 211.2 0 0 1-100 31.7c-33.9 1.4-67.8 3.2-101.6.8C587 96.9 567.2 87 547.3 78c-16.4-7.4-31-18.4-46.8-27.1-13.5-7.4-20.5-4.6-28 10-9.5 18.5-7 33.2 8.6 49.4 3.6 3.8 11.3 7.6 7.2 13.5-5 7-10.2-1.5-14.1-4.9-10.8-9.4-20-20.4-21.1-37-.3-4-.5-8-5.2-8.5-3.6-.4-6 .9-8.5 4.5-8.2 12.4-8 18.6 3 36.7 2.5 4.3 5.8 8 2.2 14.2-11-4.8-14.8-17.1-20.7-27.2-6.6 5.5-4.4 11-2.9 16a147.9 147.9 0 0 0 62.4 81.8c13.7 9 27.5 18 42.7 22.9 36.4 11.6 72.3 26.3 111.4 23.3 25.9-2 52.2 3 77.7-6.3 6.7-2.4 9.2 2.5 8.5 9.1-2.5 26.3-7.4 51.7-21.2 74-22.7 36.6-55.2 59.4-88.8 80.6-25.8 16.3-54.8 25.3-79 45.5a190.8 190.8 0 0 0-46.5 54.3C465.5 544 462 588.6 471.9 635c5.2 24.8 19.8 43.2 34.4 61.4 5.3 6.6 11.2 12.7 17 19.8-3.8.9-7.7.9-12.5.9-24.9-24.6-46.3-51-53.4-88.3a217 217 0 0 1 .3-77.2c7.8-46 30.5-81.7 62.1-110.1 14.8-13.2 31-24 48.4-32.2 43.2-20.5 83.2-46.6 115.5-85.8a105 105 0 0 0 23.8-63.6H632c-27.8 0-54.3-7-80.8-15.8a296 296 0 0 1-70.4-33 163 163 0 0 1-66.8-82.4c-3.2-9-6.4-10.2-13.3-5.7-27.6 17.7-57.8 28.4-86.6 42.9-49.3 24.8-101.5 44.3-137.1 94.5a789 789 0 0 0-45.2 71.5C103.4 382.6 82.1 437.6 58 491c-13 28.6-26.3 57-37.6 86.5-9 23.4-7.5 27.2 14.7 34 13.4 4 26.3 11.1 40 13.5 36.2 6.4 68.5 24.7 101.7 40.3a530 530 0 0 1 77.1 41.6c4.9 3.4 11.4 2.2 15 9.2-9.6.8-19.2 1-28.8.3-45.3-26-93-39.7-138.8-62-5 23-10.7 42.1-11.6 62.6H77.1c-2.8-9.2.5-17.6 2.1-26.3 2.1-11.3 1.2-19.6-11.4-22-20.5-4-37.4-17.3-54.6-29.4-12.1-8.4-16-26.2-11.3-47 5.5-25 15.6-47.6 25.5-70.5 20.5-47.5 42-94.5 63.2-141.6 25.8-57 55.5-112 97.7-156.2 21-22 45.2-38.4 71.6-51.9 22.8-11.7 45.6-23.8 69-33.8 20-8.7 39-19.6 58.7-29 14.6-6.9 28.3-14.7 36-32.2 6.1-13.8 15.5-24.6 31.5-20.1 4.2 1.2 6-1.6 8.1-5 16-24.3 28-26.8 51.8-11.2 6.6 4.3 42.5 24.2 53 29.5 23.8 12 49.6 18 75.7 17.8 26.4-.2 52.8-2.6 79.1-4.5C753.8 81.4 782 68 809 52c9.8-5.8 18.4-14.6 27.8-21.6 11.3-8.4 23.5-6.9 33.5 3.9 4 4 8.3 7.3 13.2 9.7 13.1 7 17.5 24.3 27.8 32 10.4 7.7 25.2 7.9 34.6 20.6 6.3 8.6 16.4 11.6 25 17 248.7 157.4 198.5 193.2 296.6 375.9 17.1 31.9 29.5 66.4 46.1 98.5.2.3.3.7.6 1 16.3 27 13.1 39.2-14 52.2-7.1 3.4-10.8 6.6-9 16.9 3.3 18.7 4.7 37.8 6.7 57.8-4 1-8 1-13.1 0-4.2-10.9-3.7-21.1-3.7-31.3-.2-17.7-5.8-33.8-10.4-51.4-10.2 4-20 6.2-28.4 11.1-27 15.8-55 27.2-85 33-15.1 3-21.7 13.5-21.7 30.9.2 3 .5 5.9 1 8.8-5.1.1-10.2-.3-15.2-1.2-2.6-76 172-113.3 172-113.3s-32.1-68.2-55.2-126.2c-26.7-67.2-42.4-95.4-57.5-133.3-23.2-58.5-113.7-141.4-117.1-144.3Z" fill="#000"/><path d="M523.3 613.7c-10.3-30-7.6-58 5.5-85.1l5.3-11.2c2-4.7 5.2-8 9.8-5.6 4.4 2.2 3 6.6 1.7 11-3.4 12-9.4 22.8-12.7 35-7.8 29.1.5 53 16 75 6.4 9 14.9 16.3 16.1 29.2a88.3 88.3 0 0 1-41.7-48.3ZM829.8 163c16.4-22.2 34-33.7 45.2-29a35 35 0 0 1-11.2 12 133.7 133.7 0 0 0-38 39.3c-15.3 22.7-15.8 46.3-2.4 70.6a97.5 97.5 0 0 1 11.5 40.8c1.2 16.6-5.4 28.5-19.8 35.3-.5-.7-1.3-1.7-1.2-2 15.4-21.9 9-44.4 1.6-67-11.5-35.8-8.3-69.3 14.3-100Z" fill="#000"/></g><g transform="translate(266 207)"><path d="M426.5 269.7c41.9-29.9 86-54 136-62.5 30.9-5.3 62.8-2.1 94 4.5a189.2 189.2 0 0 1 58.3 21c16 9.5 34.5 11 51.4 18 39.6 16.2 63.8 47 85.4 82 20.5 33.1 35.1 69.5 57.6 101.4 14 20 31 37 46.7 55.4a183 183 0 0 1 44.8 94A93 93 0 0 1 986 648c-25.5 38.1-24.4 79.2-19 121.5 4.8 37.8-3.6 72-28.5 101a75.6 75.6 0 0 1-44.8 24.8 145.1 145.1 0 0 0-58.8 21.8c-27 18.3-58.6 16-87.9 10.4-30.5-6-59.7-19-87.6-33.4a93.8 93.8 0 0 1-41.4-39.8c-4.2-8.4-11.5-9-18.4-11.8-8.2-3.3-18.5-2.5-24-12.4 13.7 4 27.6 5.8 41.5 7.1 45.7 4.5 90.6 4.6 128.8-27 15.7-13 24.5-31 34.7-48 18.8-31.4 36.3-63.7 41-100.5 3.9-29 7-58.3 3-87.7-.3-1.7-.6-3.4-.6-5.1 1.6-34.7-6.4-68.4-10-102.5A232.5 232.5 0 0 0 775 360c-3.5-5.3-7.4-10.2-11.7-16C749 377 724 395.5 692 408.4c-30.3 12.1-62 8.7-92.7 14.4-19.4 3.6-40.2 1-58 12-23.8 14.6-41.9 55.5-34.3 82 5.7 19.5 14.7 37.7 18 58.1 6 39.3-.5 74-30.2 102.7-5 4.8-10.4 9.7-16.5 11.6-16 4.8-18.6 16.5-19.1 30.5-1.4 42.7-22.2 75-58.1 95.2-38.5 21.6-79.7 26-121.9 7.2-27.7-12.3-58.4-13.2-87.6-20.4-28-6.9-57.5-11.7-77.8-34.3a87.4 87.4 0 0 1-22.5-51.7c-2.2-26.8-1.9-52.8 6.4-79.2 14.7-46.4 47.4-76.7 86.2-102 31-20.1 60-42.1 84-70.7a465.7 465.7 0 0 0 50-71.7c22.8-40.8 54-74.5 88.6-105.4 6.4-5.6 12.2-11.7 20-17Z" fill="#000"/></g><g transform="translate(791 871)"><g fill-rule="evenodd" clip-rule="evenodd"><path d="m124.6 96.7 2.8 10.8c3.4 2.5 5 5.2 1.8 5.3-8 .4-28.1-18-31-26.6-2.4-6.6-2-12.3 5.6-13.1 2.5-.3 4-1.9 5.3-3.5 1.5-1.7 3-3.4 5.9-3-10.2 20.5-9.4 23 9.6 30Zm54.9-5.4c-4.2 20.3-13.8 27.6-35.3 27h-3c-2.8 0-4.7.2-6-2l.8-2c14.3 3.1 19.4-6.3 24.4-15.6l2.5-4.4a44 44 0 0 0 2-3.9c.7-1.7 1.5-3.4 2.6-5 2-2.8 4.7-5.2 8.5-3.8 4.6 1.8 4.3 6 3.5 9.7ZM135 95c1.3 8.7 6.2 6.1 10.2 2.7 2.6-2.3 4.5-5.4 6.4-8.4l1-1.6c1.7-2.8 3.7-6.6 0-8.9-3.5-2.3-6.8-1-9 3.4-1.4 3-3.6 6-6.2 9.4l-2.4 3.4Zm-4.7-23.1 3-2.8c3.5 5.4.9 9.5-2.2 14.3-1 1.4-1.8 2.8-2.6 4.3-6.8-8-2.4-12 1.8-15.8Z" fill="#fff"/><path d="M177.3 67.5c15.6 10.2 18 24 6.8 37.8a45 45 0 0 0-4 6 37 37 0 0 1-5.2 7.5 43.4 43.4 0 0 1-52 5.6l-4.7-3A83.8 83.8 0 0 1 93.1 100C81 83 82 78.4 96.7 63c4-4 8.5-6.9 13-9.8 2.8-1.7 5.6-3.5 8.2-5.5 10.4-8 25 2.1 27.9 18.1 10.2.5 20.4 1 31.5 1.7Zm-33.1 50.7c21.5.7 31-6.6 35.3-27 .8-3.7 1.2-7.8-3.5-9.6-3.8-1.4-6.6 1-8.5 3.8-1 1.6-1.9 3.3-2.7 5-.6 1.3-1.2 2.7-2 4l-2.4 4.3c-5 9.3-10 18.7-24.4 15.5l-.8 2.1c1.3 2.2 3.2 2 6 2h3Zm-19.6-21.5 2.8 10.8c3.4 2.5 5 5.2 1.8 5.3-8 .4-28.1-18-31-26.6-2.3-6.6-2-12.3 5.6-13.1 2.5-.3 4-1.9 5.3-3.5 1.6-1.7 3-3.4 5.9-3-10.2 20.5-9.4 23 9.6 30Zm10.5-1.7c1.3 8.7 6.2 6.1 10.2 2.7 2.6-2.3 4.5-5.4 6.4-8.4l1-1.6c1.7-2.8 3.7-6.6 0-8.9-3.5-2.3-6.8-1-9 3.4-1.4 3-3.6 6-6.2 9.4l-2.4 3.4Zm-4.7-23.1 3-2.8c3.5 5.4.9 9.5-2.2 14.3a65 65 0 0 0-2.6 4.3c-6.8-8-2.4-12 1.8-15.8Z" fill="#000"/></g></g><g transform="translate(653 805)"></g><g transform="translate(901 668)"><path d="M27 199.5c-7.6-4.6-16.3-6-19.8-14.5-1.8-4.5-3.5-9-1.4-13.5 3-6.4 8.9-8.5 15-6 8.6 3.7 1.8 9 .5 13.6C45 199 75 190.2 95.3 176c7.1-5 4.4-10.5-1.6-14.1-11.2-6.7-21.4-15.5-36.4-13.7 2.5-12.3 10.3-12.6 17-11.2A67.4 67.4 0 0 1 108 154c10.4 10.2 9.5 23.6-1.5 33.3-16 14.2-35.7 17.2-55.9 16-7.4-.3-15.4.3-23.5-3.7Z" fill="#000"/></g><g transform="translate(610 680)"><path d="M407.4 122.5c13 .3 25.4 1.1 37.6 2.5 3 .4 5 3.3 5 6.7 0 3.3-1.7 5.6-4.7 7-11.2 4.8-22 8.2-33.7.2-6.5-4.5-9-8.7-4.2-16.4ZM251.2 124c6.4 2.8 5.6 6.6 3 10.6-5.9 8.6-27.3 12.5-36 6.6-5-3.4-8-8-5.6-14 2.5-6.2 7.7-5.6 12.8-3.6 8.3 3.3 16.5 1.7 25.8.4ZM419.6 111c-4.2-9.5-9.9-15.2-19.8-15.7-6-.3-7-5.1-8.9-9.8 2-1.5 3.5-3.7 5.3-3.8 21.1-1.7 42.4-1.8 63.5-.1 6 .4 9.3 8 3.2 10.4-10 4-12.5 13.2-18.5 19.8-8.2 9-15.2 9.1-24.8-.8ZM229.6 81.1c12.2.7 23.1 1 34 2 3.6.3 8 1.8 8 6.7 0 5.6-4.6 5.2-8.3 5.1-6.3 0-9.7 2.7-12.5 8.6-3.4 7.4-6.9 15.3-18 14.8-10.5-.6-15.1-7.2-18.2-15.2-2-5.7-4.9-8.4-10.9-8.2-3.4.1-7.1-.2-7.5-4.9-.4-5 3-6 7-7.2a67.7 67.7 0 0 1 26.4-1.7Z" fill="#000"/></g><g transform="translate(610 680)"><path fill-rule="evenodd" clip-rule="evenodd" d="m264.3 14.3 78.4-.5 125.6-.8 6.2-.2c7.2-.4 14.6-.7 21 2.4 10.1 5 10.7 15 11.3 24.4a172.3 172.3 0 0 1-8.8 79.6 50.5 50.5 0 0 1-32 30.5c-23.5 7.8-48 13.5-72 4.8a65.7 65.7 0 0 1-42.1-39c-1.2-3.2-2.7-6.4-4.1-9.5a58.9 58.9 0 0 1-7-23.5c-.2-4.7-5.7-8.1-11.7-8.1-7 0-10.7 4.5-13.6 9.9a56.8 56.8 0 0 0-4.6 14.3c-.8 3.6-1.7 7.3-3 10.8-14.2 37-38.8 55.3-78.1 54.5a100.6 100.6 0 0 1-66.7-27.4A61.5 61.5 0 0 1 142.2 87a311.6 311.6 0 0 0 0-12 399 399 0 0 1-59.6-20.4C64.2 47 45.8 39.8 26.6 35c-3.3-.8-5.5-2-6.8-4.9-4-8.3-9.6-15.5-16.6-24.5L.3 2.1l18.9 3.3C32 7.7 43.9 9.8 55.9 11.7c9.8 1.6 19.7 3.4 29.5 5.2 20.1 3.7 40.2 7.4 60.7 8.9 6.6.4 12.5.3 18.2-5.9 6.2-6.8 16.3-6.3 25-6l2.8.2c23.7.8 47.3 1 72.2.2ZM96.1 51.7c2.8 1.5 5.2 1.1 5.2-2.4 0-18.9-14.5-29-34.1-23.5 4 14 14.6 20.5 28.9 26Zm16 3.6c-2-1.5-3-4.2-5.6-11.3-3.5-6-5-10.6-3.7-18a38.7 38.7 0 0 1 11.4 21c1 3.5 2 7 3.6 10.2-2.7-.6-4.4-1-5.7-2Z" fill="#000"/><path d="M287 44.8c-.8-6 3-7.4 7-7.4 19 0 38 0 57.1.5 4.4 0 8.5 2 11.1 5.5-6.9 8.1-53.6 9.4-75.3 1.4Z" fill="#000"/><path d="M193 63.5c-1-.3 1 0-.2.4-6.6 2 50.7 52.8 55.8 48.5 3-2.5-49.5-46.3-55.7-49ZM213.3 39.7c-.9-.3 1 0-.1.4-6.7 2 50.7 52.8 55.7 48.5 3-2.5-49.5-46.3-55.6-49ZM388.2 63.5c-.8-.3 1 0 0 .4-6.7 2 50.6 52.8 55.7 48.5 3-2.5-49.5-46.3-55.7-49ZM408.6 39.7c-.9-.3 1 0-.1.4-6.6 2 50.7 52.8 55.7 48.5 3-2.5-49.5-46.3-55.6-49Z" fill="#fff"/></g><g transform="translate(774 657)"><g fill="#000"><path d="M102.1 42.8c-8.7-12.1-25.2-16-38.8-12.5-12 3.2-21.7 11-33.6 14.4-4 1.1-7.5 2.7-9.7-2.1-1.9-3.9-1.5-7.4 2.2-10.3C41 18 75.8 5.4 100.9 19.4a45.7 45.7 0 0 1 15 15c3.3 4.7 4.5 11.6 0 15.1-5.9 4.6-10-1.2-13.8-6.7ZM288 48.8c-9.7-6.5-18.9-7.3-28-.8-3.2 2.3-6.7 4.8-10 .8-3.3-4.1-2.4-8.6 1.3-12.6 5.6-6.1 13.2-7.1 20.8-8a33.7 33.7 0 0 1 36.7 30c.2 4.3 0 9.1-5.2 10.3-4.7 1-8.3-1.7-10.2-5.9-1.9-4.2-3.2-8.7-5.4-13.8ZM191.6 30c5.2-6.6 8-15 14.5-20.6 2.5-2.1 4.4-5.5 8.5-3.2 3.7 2.1 4 5.9 3 9-3.1 8.6-6.7 17.1-10.7 25.4-2 4-7 5.5-11 4.2-6.6-2-5-7.9-4.4-13.9v-1Z"/><path d="M191.7 29.8c-2 4.2-3.6 8.5-5.7 12.6-1.6 3.1-4.2 5.8-8 4.6-4.6-1.4-5-5.3-4-9.3 1.2-4.1 2.5-8 4-12 2-4.7 1.5-12.4 9.3-11.3 8.4 1.3 4.4 8.4 4.4 14.4v1Z"/></g></g><g transform="translate(0 559)"></g></g></svg>