<svg xmlns="http://www.w3.org/2000/svg" viewBox="0 0 1744 1744" fill="none" shape-rendering="auto" width="128" height="128"><metadata xmlns:rdf="http://www.w3.org/1999/02/22-rdf-syntax-ns#" xmlns:xsi="http://www.w3.org/2001/XMLSchema-instance" xmlns:dc="http://purl.org/dc/elements/1.1/" xmlns:dcterms="http://purl.org/dc/terms/"><rdf:RDF><rdf:Description><dc:title>Notionists</dc:title><dc:creator>Zoish</dc:creator><dc:source xsi:type="dcterms:URI">https://heyzoish.gumroad.com/l/notionists</dc:source><dcterms:license xsi:type="dcterms:URI">https://creativecommons.org/publicdomain/zero/1.0/</dcterms:license><dc:rights>Remix of „Notionists” (https://heyzoish.gumroad.com/l/notionists) by „Zoish”, licensed under „CC0 1.0” (https://creativecommons.org/publicdomain/zero/1.0/)</dc:rights></rdf:Description></rdf:RDF></metadata><mask id="viewboxMask"><rect width="1744" height="1744" rx="0" ry="0" x="0" y="0" fill="#fff" /></mask><g mask="url(#viewboxMask)"><g transform="translate(531 487)"><path d="M554 727.7c-99.2 297-363.8 388.6-503.7 19.8-19.3-50.7 31-69.5 66.2-91.9 24.1-15.3 36.8-28.5 35.3-42.2-7-64.4-36.9-243.8-36.9-243.8l-3-5.8s.7-1.6-2.2 1.2c-3 3-9.9 34.2-37 34.2-24.5 0-49.2-10.9-61-86.3C7.2 285.6 9.6 214 40 201c12.5-5.3 24-7.2 35.2-.8 11.3 6.4-13-22 112-126C268.4 6.4 396.7-3.5 448.5 8 500.3 19.5 552 44.8 574.9 98.5c27.8 65-25.9 114.3-14 262.5-2.2 53.6.8 171.2-146.6 210.6-28 7.5-19.3 48.4 22.7 58.4 67 21 117 72.3 117 97.9" fill="#fff"/><path fill-rule="evenodd" clip-rule="evenodd" d="m554 266.2.1-1.4c4.1-36.4 8.2-71.7 27.1-103.4 6.5 4.4 5.7 10 3.7 15.2-19.9 51.2-18 104.4-16.2 157.6l.4 14c2.1 66.4-14.5 126.8-58.7 177.5-15.4 17.6-35.8 29.8-56.5 40.3-21.4 11-25.9 20.1-19.2 43.6l.8 2.6c1.4 3.9 2.8 7.9-1 11.8-4.5 4.6-9.5 3.3-14.8 1.8l-.6-.1a406.4 406.4 0 0 1-137-68.3c-6-4.4-10.8-10.3-15.5-16.1l-.3-.4c-2.5-3-3-7.8.5-10.4 3.3-2.5 5.8-.5 8.7 1.8l1 .9a145.5 145.5 0 0 0 76.3 31.7c13.4 1.4 26.6.9 40 .4 7.4-.3 14.8-.6 22.3-.5 10.2 0 18.7-4.7 26.7-9.2l2.8-1.6c27.8-15.5 54.3-32.8 72.2-60.7 16.1-25 25.9-52.2 31.6-80.9 7.2-36.1 6.6-72.7 6-109.8-.3-12-.5-24.2-.5-36.4ZM50.6 190.8c21.9-1.7 34 11.2 44.3 26.3a140.4 140.4 0 0 1 22.4 61.5c.5 3.7 1 7.6-1.2 11.3-4.5.6-4.9-3-5-5.6-.5-20.7-9.7-38.7-18.9-56.1-6.6-12.5-16.2-24.6-31.4-27.6-17.2-3.5-33 12-40.8 32.2-14.5 37.6-12 74.6 1.4 111 5.8 15.9 13.1 32.1 27.8 43.2 14.8 11.3 32.7 9.3 43.6-5.7l2-2.5c2-2.6 4-5.1 5-8 2.1-5.8 5.4-11.2 11.3-10.4 6.8 1 8 8.3 8.7 14a3661 3661 0 0 0 22 156.7l5.9 38.8c2.6 17.1 5.6 41.7 3.6 52.1a28 28 0 0 0-.3 2.2c-.4 2.8-.6 5-4.2 5.5-4.9.8-7-2-7.7-6.4-2.3-17-3-23.6-4-49.6-.9-25.2-5.6-50-10.4-74.9l-5-27c-5.2-30.8-10.3-62-10.8-97l-2 3c-7.6 11.3-13.7 20.5-24.5 24a40.5 40.5 0 0 1-46.1-12.5 127.8 127.8 0 0 1-28.8-55.8c-8.4-34-9.9-67.1.9-100.6 5.2-16.1 23.7-44.7 42.2-42Zm34.6 127.5c4.4 3.2 8.4 6 12-5.4-1.1-42.2-14.7-69.2-35.8-70.3 11.2 14.6 22 28.8 23 48.5a32.3 32.3 0 0 1-10.7-8.8c-2-2.2-4-4.4-6.5-6l-3-2.4c-4.8-3.6-9.7-7.4-17.8-4.5 3.8 5.8 9 10 14.3 14 6 4.7 12 9.3 15.6 16.5-10.6 7.7-15.2 17.7-9.7 29.9 4.8 10.5 11.9 19.2 25.9 19.8-.6-6.3-4.7-10.9-8.8-15.4-5-5.4-9.7-10.6-7.5-18.6 3.2-1.5 6.2.7 9 2.7Z" fill="#000"/></g><g transform="translate(178 1057)"><path d="M1301.3 694.3S1276 480.8 1263 423.6c-25.7-111.8-73.3-201.4-135.3-220.5-29.6-9.2-39.4-34-47-53.2-3-7.8-5.8-14.7-9.3-19.2C1040 90.7 975 50.5 941 37.3 914.5 27 838.5 20.6 813 30.7c-11.5 4.5-16.2 11-17.6 18.5-1.5.5-3 1.1-4.4 2-3.3 1.8-6 5-9.5 9C768 75.7 745 102.1 653.7 98c-72.5-3.2-120.5-13.8-149-58.3-2.3-3.6-5-4.8-8-4.2a223.7 223.7 0 0 0-163 19C316.2 64 219.4 158.4 218.4 163.7c-2 10.6-25.6 28-55.2 47.6C100.9 252.4 73.6 333 49.3 404.4l-6.6 19.2C31.8 455.2 6.1 692 6.1 692l176 2.3h1119.2Z" fill="#000"/><mask id="bodyVariant08-a" style="mask-type:luminance" maskUnits="userSpaceOnUse" x="453" y="259" width="392" height="433"><path d="m467 692-14-432.5h392V692H467Z" fill="#fff"/></mask><g mask="url(#bodyVariant08-a)"><g transform="translate(396 278)" style="mix-blend-mode:difference"></g></g><path d="M1295 694c-6.2-21.3-11.5-73.3-14.9-102-2.4-20.7-19.6-166.5-38.5-217.4-11.6-31.1-22.4-63-39.5-92.1-11.7-20-29.3-34.3-46-48.9a513 513 0 0 0-67-48.2c-30.9-19.2-63.4-23-97.6-11.7a32 32 0 0 0-21.9 24.3c-13.4 53.3-9.1 107.6-9.8 161.6-.8 69.8 3.1 139.5 5.2 209.2 1.8 57.2 0 66.7-.6 125.2h-14.5c-.9-32.2-.4-15.3-.6-47.5-.2-47.6-.8-95.1-1.6-142.7-.6-37.8-.3-75.7-2.8-113.5-2.6-39.6-2.7-79.1.7-118.6 2.5-28.2.1-57 11.3-84.3 9.4-23 28.3-31.8 49.9-33.5 22.4-1.7 45.7-4.8 69.8 9.3-4.8-16.6-15-24.7-22.6-34-28-34.2-65.5-55.5-103.6-76.8-39.3-22-80.7-19-122.6-17.4-6.5.3-12 3.8-17.8 6.7-7.5 4-15.3 7.3-26.6 4.8 9.5-13 22.1-17.3 35.1-21.1 37.1-10.8 73-5.2 95.7-1.8C943 28 1042.7 76 1089.7 151.5c22.3 35.9 85.8 36.4 143.6 157.6a528 528 0 0 1 34.7 100.7c10.9 44 39.5 252.6 39.5 284.2H1295ZM15.3 694c2-6.9 2.7-9.9 3.6-15.7 4.6-28.4 5.5-57.6 8.9-86.3 2.4-20.7 3.3-41.4 6-62 7.2-52.7 15.6-105 32.5-155.4 10.7-31.7 22.4-63 39.5-92.1 11.7-20 29.3-34.3 46-48.9 20.7-18 43.5-33.7 67-48.2 30.9-19.2 63.4-23 97.6-11.7a32 32 0 0 1 21.9 24.3c13.4 53.3 9.1 107.6 9.8 161.6.8 69.8-3.1 139.5-5.2 209.2-1.8 57.2.5 125 .5 125l14.6.2c.9-32.2.4-15.3.6-47.5.2-47.6.8-95.1 1.6-142.7.6-37.8.3-75.7 2.8-113.5 2.6-39.6 2.7-79.1-.7-118.6-2.5-28.2-.1-57-11.3-84.3-9.4-23-28.3-31.8-50-33.5-22.3-1.7-45.6-4.8-69.7 9.3 4.8-16.6 15-24.7 22.6-34 28-34.2 65.5-55.5 103.5-76.8 39.4-22 80.8-19 122.7-17.4 6.5.3 12 3.8 17.8 6.7 7.5 4 2.3 11.5 6.4.7 5.8-15-2-13.2-15-17-37-10.8-74-4-111 .5-7.4 1-14.8 4.4-21.5 8-51.4 27.8-116 77.2-138.6 117.6-12 21.6-30.7 32.8-47.5 47.7C111 252.3 95.3 263.8 74.6 309a573.6 573.6 0 0 0-34.7 100.7c-11 44-19.1 88.6-22.8 134.2-2.7 32.4-7.4 64.8-10.3 97.4-2 22.8-3.5 39.7-3.5 52.6h12Z" fill="#fff"/><path d="M1131.8 694c2-23.7-8-84.7-12.5-115.7-3.3-22.6-3-46-11.4-67.7-2.1-5.4-1.5-12.4 5.3-13.5 6.4-1 9.2 3.5 10.7 10.8 7.8 38.3 11.3 77.2 16 116 3.5 30 7.8 60 8.5 70l-16.6.1ZM193.3 694c1.4-23.6 8-84.7 12.6-115.7 3.3-22.6 3-46 11.4-67.7 2.1-5.4 1.5-12.4-5.3-13.5-6.4-1-9.3 3.5-10.7 10.8-7.8 38.3-11.3 77.2-16 116-3.6 30-5.7 70.1-5.7 70.1h13.7Z" fill="#fff"/><path d="M467.4 694.3S452.7 266.8 452.7 179c0-72.8 36.6-163 52-139.2 28.5 43.8 77.2 58.4 149.7 61.5 115 5 120.9-41.3 136.6-50 31.4-17.6 52.7 66 52.7 141.4V694" stroke="#fff" stroke-width="15"/></g><g transform="translate(266 207)"><g fill="#000"><path d="M890.2 299.7c7.5 37-1.8 77.7-15 112.3-7.4 19.3-20.2 42-31.3 54.3-9.2-2.8-14-14.4-18.3-19.8A116.1 116.1 0 0 0 756 404c-36.6-8.2-72.7-3.6-109.1-.4-31.8 2.8-63.7 5-95.6 5.8-15.6.3-31.1 5.4-47 1-1.9-.5-5.2 1-6.8 2.6-17.2 17.8-39 30-56.8 47.2-18.9 18-25.2 41-26.4 65.6-.7 16-4.4 31-7.7 46.4-2.7 13-13 12.7-21.9 12.4-9.8-.3-6.7-9.5-8.4-15.6-8.6-29.5-11.9-61.4-37.6-83-3.9-3.3-8.2-7.7-12.7-8.1-12.5-1.3-13.5-9-13.5-18.7 0-24.7-26-41.5-24.2-66 3.6-47 41.8-98.4 72.9-135.2a130 130 0 0 1 61.2-40.9 540 540 0 0 1 87-22.7c43.5-6.3 87.4-12.7 131.6-4.6a160 160 0 0 0 35.6 3c35.4-1.6 68 8.2 100 21.9 8.9 3.8 18 24.6 27 27.8"/><path d="M404.2 295c10.3 9.5 20.8 17.4 27.7 29 12 20-3.7 57-22.3 70.1a645.4 645.4 0 0 0-31.4 23.7c-7.5 6-13 5.4-19.7-1.6a231.2 231.2 0 0 1-44.3-69.2 416 416 0 0 1-28.4-84.1 56.9 56.9 0 0 1 .1-27.8c3.7-12.4 10.8-15.7 22.1-9.7 35 18.6 67.4 40.8 96.2 69.5ZM786.3 279.7c-2.2 7.5-4.7 13.9-5.8 20.5-4.1 24.7-12 30.7-34.2 21a164.5 164.5 0 0 1-51.9-33.4c-18.4-18.4-16.3-21.8-3.7-45.4 16-30 42.1-51.6 65.2-75.8 12-12.5 24-25.1 38.5-34.8 5.7-3.7 12.8-9.8 19.7-5.3 7.6 4.9 6.6 13.6 5.1 22a612 612 0 0 1-19.4 84c-4.8 15-11.7 30-13.5 47.2ZM565.4 190.1a740.6 740.6 0 0 1 28.5-99.7c.7-2 .7-4.6 2-5.9 5.9-5.8 7.8-17 17.7-16.8 10.1.2 10.9 11 14 17.9 12 27.3 15.8 57 21.2 86 4.6 24.9 9.9 49.8 11.1 75.4.6 12-2.6 18.7-16 20.6-16.3 2.4-31.7 9.3-48.6 9.2-10.6 0-21-2.7-30.3-7.8-12.5-6.6-15.5-16.4-12.8-28.6 3.7-16.6 8.5-32.9 13.2-50.3ZM435.4 248c-5.3-41.5-15-81.4-12.9-122.6.3-5.6 0-11.7 6.8-13.6 6-1.8 11.6-.7 16.2 4.4 18.4 21 35.4 43.3 50.7 66.7 11.6 17.7 23.4 35.3 33.2 54.2 11.2 21.6 10.3 35.5-6 52a75.4 75.4 0 0 1-44.6 22c-28 3.8-32.4-10.6-37.6-32.2-2.4-9.6-3.8-20-5.8-31ZM360.3 478.3c-.3 6.9 1 12.8-1.7 18.5-15.3-9-27.2-22.9-46.2-20.4-2.5.3-5.6-.3-7.5.9-12.7 7.9-20.2-.1-26.7-8.9a370 370 0 0 1-50.2-87.8c-2.5-6.5-5.4-14 .5-19s13.2-2.2 20.3.5a332.7 332.7 0 0 1 78 44.6c10.8 8 21.9 16 31.2 25.6a24.8 24.8 0 0 1 6 25c-2 6.5-4 13-3.7 21ZM866.4 350c-5.2 11.8-12.9 20.9-20.1 30.2-7 9-15 9.2-23 2-13.3-12-23.2-26.9-30.5-43.1-4.2-9.3-2.7-19.6 5.4-25.8 25.4-19.3 46.4-43.5 72-62.5 12.5-9.3 24.7-19.2 38.7-26.3 4.1-2.1 8.6-4.5 13-.4 4.3 3.9 3.2 8.7 1.2 13-12 25-24 50.2-36.4 75.2-6.2 12.5-13.2 24.7-20.3 37.7Z"/></g></g><g transform="translate(791 871)"><path d="M104.4 64.4c-14.7 4.9-15.7 8.4-8.6 22a59 59 0 0 0 17 18.4c29.7 23.5 71.7 13.1 91.8-12.8 6.2-8 6.6-19.1 1-27.6-5.4-8.1-13.8-3.4-20.8-.7-4.5 1.8-9.1 1.5-13.7 2-21.7 2.6-43-5-66.7-1.3Z" fill="#fff"/><path fill-rule="evenodd" clip-rule="evenodd" d="M83.3 85.7c10 24.5 30.3 35.6 54.6 43.5a87.6 87.6 0 0 0 75.5-28c9.3-9.9 11.5-33.9 4-44.3-6.7-9.2-17.8-10.9-34-4.4a48 48 0 0 1-24.8 3.3l-6.2-1c-16.8-2.2-33.5-4.6-50.7-1.5-17.4 3.2-25.1 15.9-18.4 32.4Zm12.5.6c-7.1-13.5-6-17 8.6-22 12.5-1.9 24.4-.7 36 .5 10.3 1 20.4 2.1 30.7 1 1.3-.3 2.7-.3 4.1-.4a30.3 30.3 0 0 0 11.9-2.6c6.5-2.7 13.7-5.7 18.6 1.6a23.7 23.7 0 0 1-1.1 27.6c-20.1 26-62.1 36.3-91.8 12.8a59 59 0 0 1-17-18.5Z" fill="#000"/></g><g transform="translate(653 805)"></g><g transform="translate(901 668)"><path d="M10.2 187.7c5-8.1 10.6-4.3 16.6-2.2 14.4 5 28.7 11 44 1.7 7.5-4.5 15.5-8.2 15.6-18.1 0-7.2-15-19.6-24.1-20.4-6.8-.6-13.7-.3-20.5-.5-4 0-8.2-.4-9.1-5-.9-4.5 2.5-7 6.2-8.7 21.8-10.6 68.2 8.4 62.8 40.3-1.6 9.3-14.4 25.4-23.7 27.4-17.3 3.7-34.7 4-51.9-.2-7.2-1.8-13-6-15.9-14.3Z" fill="#000"/></g><g transform="translate(610 680)"><path d="M215.1 76.6c5-12 9-29.4 24.1-22.5 20.7 9.4 13.9 30.7 9.7 47.4-1.6 6.3-14.5 15.9-18.3 14.3-16.3-6.8-19.2-21.7-15.5-39.2ZM442 113.4c-8.6 7.5-17 7.6-22.2-1.5-9-16-8.6-32.8 3.3-47.2 2.5-3 13.8-3.6 16.3-1 14 15 14.6 31.8 2.6 49.7Z" fill="#000"/></g><g transform="translate(610 680)"></g><g transform="translate(774 657)"><path d="M30.3 32.1C58 10 89.8 13.1 121 14.1c5.7 0 12.2 1.3 14.3 8.3 2.1 7.7-4.6 9.9-8.8 13.8a44.7 44.7 0 0 1-52.2 8.6 37.9 37.9 0 0 0-31.9 1.6c-2 1-3.8 1.9-5.8 2.6-6.3 2.5-14.3 6-18.6-.4-4.4-6.7 5.6-9 8.3-13.7.6-1 2-1.6 3.9-2.8ZM294.4 23.8c7.7 4.3 14.5 10 20 17 2.5 3 5 6.3 3 10.2-2.4 4.3-6.7 2.7-10.4 2.2-12.5-1.5-23.7-9.2-37-7.2-5 .8-9.9.7-15 2.5-13 4.7-31-6.4-33-19.8-1-5.4 1-8.5 6.8-10 22.2-5.7 44-9 65.6 5.1Z" fill="#000"/></g><g transform="translate(0 559)"><path d="M1372.2 1194h-130s14.1-33.2.2-56.2c-22.2-36.3-61.3-59.2-93.3-84-23-17.9-47-63-44-111.8 1.6-25.8 4.5-46.5 17.8-48s24.8 8.5 28.5 35.5c3.7 27 10.8 78.1 47 78.1 20 0 40.2-30.4 36.1-59.6-4-29.2-22.9-65.8-38.4-74.7-15.5-8.8-43.9-.5-58.4-1-14.6-.7-17.3-11-8.1-30 14.2-29.6 63.5-34 82.4-24.8 18.8 9.3 35 36.6 42 32.2 7.1-4.5-25.4-102.4-32.4-114.2-7-11.8-26.2-60.9-7.4-66.4 18.9-5.6 46.5 41 54.7 58.6 8.1 17.8 41.4 96.1 41.4 96.1s18.3-45.7 4-102.3c-3.8-15.3-13.3-60.6 1.9-60.6 15.1 0 38 56.9 41.7 68.7 3.7 11.8 11.8 80 14.4 107 2.6 27 7.8 62 7.8 62s24-52.5 27.6-68.7c6.3-28.4-6-70.4 13.2-73 34.5-4.6 32.3 94.9 22.1 130.2-8 27.8-34 124.8-51.5 153.9-14.5 24-19.7 70.7-18.7 96.7s-.6 56.4-.6 56.4Z" fill="#fff"/><path d="M1237.4 1194c-1-2.9-2-6.2-1-8.7 11-28.7-1.1-49.2-21-69.1-15.5-15.5-33.2-27.9-50.3-41-23.3-18-46-37.5-53.8-65.7-10.5-37.5-22.4-76.7 2.3-114.3 8.6-13.2 21-14 30.8-1.4 12.2 15.8 13.8 35.5 18.2 54 4.2 17.3 12.6 32.4 20.8 47.6 3.5 6.4 9.2 8.5 17.3 4.7 16.4-7.5 24.8-18 25.2-37.2.5-24.2-3-46.2-17-66.5-11.8-17.3-20-21-40.2-17.4-16 2.8-32.5 8.3-46.6-6.8-5.3-5.6-6.3-10.3-4.2-17 14.6-46.1 86.1-62.9 119.5-28 4 4.1 9 7.5 13 10.8-6.2-28.3-11.7-58-27-84.7-9.6-16.7-16-34.8-22.5-52.8-3.2-8.8-3.8-18.6 1.9-27 9.8-15 24.5-14.8 39.5-.3a160.1 160.1 0 0 1 37 59c8.4 21.7 19.2 42.5 25.4 65.1 1.5 5.7 4.1 11.2 4.8 17.3 2.4-19.1 6-38.3 3.2-57.6-3.3-21.8-6-43.8-7.8-65.8-1.3-14.4 3.6-69 32-23.7 12.3 21 22.5 43.2 30.4 66.3 8.7 26.4 13.6 114.5 13.6 158 0 24.6 26-127.2 26.3-128.3 2.5-6.9 6.9-11.8 14.3-13 7.3-1.2 11 3.2 15.6 8.5 13.4 15.3 11 58.9 12.5 76.6 6.2 72.7-32.3 150.2-60.3 228.2-21.5 60.1-6.5 129.6-7 130.2-3.5 4-10.5 0-17.1-1.1a826.6 826.6 0 0 1-1.3-76.7c.7-18.2 4-36.7 11.4-53.4 11.5-26 20.5-53 30.5-79.4a840.5 840.5 0 0 0 33-119.8c7.6-35-6.6-64.9-12.3-97.6-5.9 2.6-7 6-7.2 9.3-.7 12-3 23.6-3.6 35.6-1.8 36.9-9.5 72.3-31.8 103-1.9 2.7-2 7.1-6.8 6-4.5-1-5.6-5-5.6-9 0-31.5-8.9-62.3-8-93.8 1.2-37-7.5-71.7-21.7-105.3a160.3 160.3 0 0 0-21.4-39c-1.1 8.1-1.5 16.3-1.2 24.5.3 3.8.9 7.6 1.8 11.3 11.3 55.5 5.4 111-.5 166.4-.4 4.3-1 10.7-7.2 10.5-7.5-.1-6.6-7-6-11.7 2.6-20.1-4.3-38.6-10.3-56.9a775.8 775.8 0 0 0-36.5-90.9c-7.5-15.8-15.8-31-28.8-43-3.7-3.6-8.2-7.5-13.5-4-4.8 3-5.1 8.8-3.7 14 2.3 8 4.3 16.3 8 24a949.3 949.3 0 0 1 23 52.4c16.3 40.9 19.2 85.1 31 127.2 2 7 .6 13.5-8.2 16-4-4.7-6.6-10.1-6.4-15.4.2-10-4.6-17.8-9.3-25.8-11-18.9-25.2-34.9-44.6-45.8-22-12.3-52-3.5-73 22-2.5 3-7 6-4.8 11 2.3 5.2 7.1 7 12.5 7.3 9.4.5 18.8-.2 27.8-3.4 10-3.6 19-1.4 27.9 3.9 39.7 23.3 58.3 95.4 28 135.9-13.4 17.8-41.3 14.9-53 2-19.4-21.4-25.8-47.8-30.1-75.1-1.6-10.4-3.3-20.7-13.2-28-8.7 10-14 20.1-13.4 33 .5 10.6-.3 21.3.2 32 2 35 14.7 64.9 43.6 86.5 15.6 11.7 31.8 22.7 46.5 35.3 14 12.2 30 22.9 40.2 38.8 13.5 21 7 44.6 7 67.2h-16.8Z" fill="#000"/></g></g></svg>